<?xml version="1.0" encoding="UTF-8" standalone="no"?>
<svg
   xmlns:dc="http://purl.org/dc/elements/1.1/"
   xmlns:cc="http://creativecommons.org/ns#"
   xmlns:rdf="http://www.w3.org/1999/02/22-rdf-syntax-ns#"
   xmlns:svg="http://www.w3.org/2000/svg"
   xmlns="http://www.w3.org/2000/svg"
   version="1.1"
   id="svg4146"
   viewBox="0 0 24.002996 31.38521"
   height="8.857604mm"
   width="6.774179mm">
  <defs
     id="defs4148" />
  <metadata
     id="metadata4151">
    <rdf:RDF>
      <cc:Work
         rdf:about="">
        <dc:format>image/svg+xml</dc:format>
        <dc:type
           rdf:resource="http://purl.org/dc/dcmitype/StillImage" />
        <dc:title></dc:title>
      </cc:Work>
    </rdf:RDF>
  </metadata>
  <g
     transform="translate(3.600225e-6,-1020.977)"
     id="layer1">
    <g
       style="fill:none"
       transform="matrix(0.36393488,0,0,0.36948172,1.5909682,666.71668)"
       id="g4712">
      <path
         style="opacity:1;fill:none;fill-opacity:1;stroke:#3a3838;stroke-width:2.72703624;stroke-linecap:round;stroke-linejoin:round;stroke-miterlimit:4;stroke-dasharray:none;stroke-opacity:1"
         d="m 60.225114,992.14152 c 0,25.97438 -31.619649,50.23618 -31.619649,50.23618 0,0 -31.6196474,-24.2618 -31.6196474,-50.23618 0,-21.97831 14.1565984,-31.96846 31.6196474,-31.96846 17.463049,0 31.619649,9.99015 31.619649,31.96846 z"
         id="path4138" />
      <ellipse
         style="opacity:1;fill:none;fill-opacity:1;stroke:#3a3838;stroke-width:2.72703624;stroke-linecap:round;stroke-linejoin:round;stroke-miterlimit:4;stroke-dasharray:none;stroke-opacity:1"
         id="path4144"
         cx="29.116318"
         cy="989.79816"
         rx="11.857368"
         ry="11.988173" />
      <path
         id="path4874"
         transform="matrix(2.7477443,0,0,2.7064938,-4.3715837,958.80337)"
         d="m 14.693359,0.49609375 c 1.526476,1.82705265 6.306645,3.88910315 5.967355,12.26367225 -0.339094,8.369733 -9.678571,17.5 -9.678571,17.5 L 9.7167969,28.855469 c 1.3215891,1.247026 2.2851561,2.023437 2.2851561,2.023437 0,0 11.507813,-8.963488 11.507813,-18.560547 0,-4.3372382 -1.509762,-8.9331621 -8.816407,-11.82226525 z"
         style="fill:#3a3838;fill-opacity:0.24309393;fill-rule:evenodd;stroke:none;stroke-width:2.72704101px;stroke-linecap:butt;stroke-linejoin:miter;stroke-opacity:1" />
    </g>
  </g>
</svg>
